<svg viewBox="0 0 62 53.78" xmlns="http://www.w3.org/2000/svg" aria-labelledby="sgGearTitle" role="img">
  <title id="sgGearTitle">Strategic Gears mark</title>
  <path d="M46.64 10.61C46.58 10.52 46.46 10.46 46.37 10.46L27.73 10.46C27.64 10.46 27.52 10.52 27.46 10.61L24.64 15.52C24.58 15.61 24.64 15.67 24.73 15.67L43.37 15.67C43.46 15.67 43.58 15.73 43.64 15.82L52.97 31.96C53.03 32.05 53.03 32.2 52.97 32.26L43.64 48.4C43.58 48.49 43.58 48.64 43.64 48.7L46.46 53.61C46.52 53.7 46.58 53.7 46.64 53.61L58.98 32.24C59.04 32.15 59.04 32 58.98 31.94L46.64 10.63" fill="#00A6CE"/>
  <path d="M52.94 32.28C53 32.19 53 32.04 52.94 31.98L43.61 15.84C43.55 15.75 43.43 15.69 43.34 15.69L37.66 15.69C37.57 15.69 37.51 15.75 37.57 15.84L46.9 31.98C46.96 32.07 46.96 32.22 46.9 32.28L37.57 48.42C37.51 48.51 37.39 48.57 37.3 48.57L18.48 48.57C18.48 48.57 18.45 48.63 18.39 48.72L15.57 53.63C15.51 53.72 15.57 53.78 15.66 53.78L40.33 53.78C40.42 53.78 40.54 53.72 40.6 53.63L52.94 32.29" fill="#005487"/>
  <path d="M44.08 27.05C44.02 26.96 43.99 26.9 43.99 26.9 43.99 26.9 43.96 26.96 43.9 27.05L34.57 43.19C34.51 43.28 34.39 43.34 34.3 43.34L15.66 43.34C15.57 43.34 15.45 43.28 15.39 43.19L6.06 27.05C6 26.96 5.88 26.9 5.79 26.9L0.11 26.9C0.02 26.9-0.04 26.96 0.02 27.05L12.36 48.42C12.42 48.51 12.54 48.57 12.63 48.57L37.3 48.57C37.39 48.57 37.51 48.51 37.57 48.42L46.9 32.28C46.96 32.19 46.96 32.04 46.9 31.98L44.08 27.05" fill="#64BEDA"/>
  <path d="M18.66 38.14C18.57 38.14 18.45 38.08 18.39 37.99L9.06 21.85C9 21.76 9 21.61 9.06 21.55L18.4 5.41C18.46 5.32 18.49 5.26 18.49 5.26 18.49 5.26 18.46 5.2 18.4 5.11L15.57 0.21C15.51 0.12 15.45 0.12 15.39 0.21L3.06 21.58C3 21.67 3 21.82 3.06 21.88L15.4 43.25C15.46 43.34 15.58 43.4 15.67 43.4L34.49 43.4C34.49 43.4 34.52 43.34 34.58 43.25L37.4 38.34C37.46 38.25 37.4 38.19 37.31 38.19L18.67 38.19" fill="#009DC5"/>
  <path d="M21.7 0C21.61 0 21.49 0.06 21.43 0.15L9.09 21.52C9.03 21.61 9.03 21.76 9.09 21.82L18.39 37.99C18.45 38.08 18.57 38.14 18.66 38.14L24.34 38.14C24.43 38.14 24.49 38.08 24.43 37.99L15.13 21.85C15.07 21.76 15.07 21.61 15.13 21.55L24.46 5.41C24.52 5.32 24.64 5.26 24.73 5.26L43.37 5.26C43.46 5.26 43.58 5.2 43.64 5.11L46.46 0.21C46.52 0.12 46.46 0.06 46.37 0.06L21.7 0.06" fill="#005480"/>
  <path d="M61.89 26.9C61.98 26.9 62.04 26.84 61.98 26.75L49.64 5.38C49.58 5.29 49.46 5.23 49.37 5.23L24.7 5.23C24.61 5.23 24.49 5.29 24.43 5.38L15.1 21.52C15.04 21.61 15.04 21.76 15.1 21.82L17.92 26.73C17.98 26.82 18.04 26.82 18.1 26.73L27.43 10.59C27.49 10.5 27.61 10.44 27.7 10.44L46.37 10.44C46.46 10.44 46.58 10.5 46.64 10.59L55.97 26.73C56.03 26.82 56.15 26.88 56.24 26.88L61.89 26.88" fill="#64C0DC"/>
</svg>
